PathFileType	4	(X/Y/Z)	./resultDataOpenSim/trcMotMarkerGrf/sub09/qtm-03-02.trc
DataRate	CameraRate	NumFrames	NumMarkers	Units	OrigDataRate	OrigDataStartFrame	OrigNumFrames
250.000000	250.000000	6	24	m	250.000000	249	496
Frame#	Time	L.Toe.Tip			R.Toe.Tip			L.Ankle.Lat			R.Ankle.Lat			L.Ankle.Med			R.Ankle.Med			L.Heel			R.Heel			L.Knee.Lat			R.Knee.Lat			L.Knee.Med			R.Knee.Med			L.Thigh.Upper			R.Thigh.Upper			L.ASIS			R.ASIS			V.Sacral			L.Acromium			R.Acromium			C7			L.Elbow			R.Elbow			L.Wrist.Lat			R.Wrist.Lat
		X1	Y1	Z1	X2	Y2	Z2	X3	Y3	Z3	X4	Y4	Z4	X5	Y5	Z5	X6	Y6	Z6	X7	Y7	Z7	X8	Y8	Z8	X9	Y9	Z9	X10	Y10	Z10	X11	Y11	Z11	X12	Y12	Z12	X13	Y13	Z13	X14	Y14	Z14	X15	Y15	Z15	X16	Y16	Z16	X17	Y17	Z17	X18	Y18	Z18	X19	Y19	Z19	X20	Y20	Z20	X21	Y21	Z21	X22	Y22	Z22	X23	Y23	Z23	X24	Y24	Z24

249	0.992	0.14174296	-0.010749069	0.025849476	0.36885992	0.090914717	0.17545662	-0.0027542304	0.03227455	-0.024645835	0.22525126	0.12400987	0.19223903	0.015537794	0.051854934	0.07175759	0.25066172	0.15031232	0.098250026	-0.078223944	0.0053633114	0.016811215	0.15896659	0.1034477	0.13833983	0.10320134	0.43435678	-0.077321069	0.38466095	0.54368623	0.2116543	0.099771357	0.43702092	0.048121418	0.3827736	0.52579823	0.086792687	0.13122174	0.85816714	-0.13142495	0.14040172	0.86938706	0.23911646	0.22149533	0.94051889	-0.073842103	0.21646598	0.95284173	0.16591319	0.056105536	1.003596	0.044999173	0.23057895	1.4022605	-0.10879754	0.18529459	1.4059584	0.21723997	0.14429415	1.4541256	0.047546535	0.10449426	1.0504247	-0.19167588	0.017619183	1.0834209	0.28685505	0.32874205	0.89428389	-0.18653852	0.10742341	0.83608249	0.34693219
250	0.996	0.14176967	-0.010774261	0.025862591	0.3880854	0.090528821	0.17538144	-0.0030611777	0.032810821	-0.024073095	0.24370322	0.12009607	0.19210388	0.015842227	0.052217054	0.072139964	0.26846522	0.14713415	0.098238383	-0.07819188	0.0059565945	0.017410029	0.17818292	0.098031456	0.13801533	0.10384154	0.43457721	-0.077231003	0.39229489	0.5452608	0.21161136	0.10125595	0.43724394	0.048041287	0.39012012	0.52660528	0.087269907	0.13590819	0.85792304	-0.1313084	0.14626862	0.86917022	0.23952064	0.22677846	0.94013976	-0.073814089	0.22225528	0.95259124	0.16600697	0.061562887	1.003292	0.045320957	0.23640511	1.4020546	-0.10862419	0.19127879	1.4056554	0.21746273	0.15026444	1.4539038	0.048122154	0.11113716	1.0495507	-0.19133984	0.023341859	1.0834271	0.28705958	0.33742032	0.89606919	-0.18551517	0.11213557	0.8360211	0.34811354
251	1	0.1417964	-0.010801006	0.025866021	0.40728687	0.090157027	0.17535404	-0.0031480346	0.033255661	-0.023700557	0.26219634	0.11630403	0.19195527	0.01615484	0.052547346	0.072490393	0.28636431	0.14405911	0.098209866	-0.078134894	0.0065467028	0.017992739	0.19768427	0.092733155	0.13742682	0.10451972	0.43479927	-0.077155565	0.39959372	0.54648258	0.2117186	0.10265448	0.43742964	0.04796916	0.39737284	0.52718419	0.087721698	0.14059235	0.85758906	-0.1312683	0.15213625	0.86889622	0.23993112	0.23208651	0.93971492	-0.07377514	0.22804972	0.9522783	0.16610702	0.066976989	1.0029287	0.045718355	0.24221605	1.4018012	-0.10842106	0.1972559	1.4053025	0.21767986	0.15627445	1.4535676	0.048516829	0.11784585	1.0486343	-0.19102101	0.028946352	1.0834225	0.28729199	0.34604972	0.89778959	-0.18448944	0.11691422	0.83588949	0.34926758
252	1.004	0.14181702	-0.010826868	0.025861997	0.42650582	0.089808764	0.17538152	-0.0030721123	0.033632339	-0.023476017	0.28073571	0.11263052	0.19177321	0.016457948	0.052880224	0.072803003	0.30435779	0.14109657	0.098162953	-0.0780625	0.007153151	0.018554159	0.21727162	0.087620467	0.13676536	0.10522849	0.43503135	-0.077092358	0.40636203	0.54728113	0.21203931	0.103902	0.43758251	0.047944647	0.40456732	0.52751718	0.088096874	0.14530806	0.85724793	-0.13115667	0.15800271	0.86856445	0.24035119	0.23745164	0.93925494	-0.073709688	0.23385524	0.95190082	0.16621661	0.072408379	1.0025207	0.046192016	0.24801757	1.4014974	-0.10819471	0.20323252	1.404897	0.21789995	0.16232585	1.4531144	0.048789011	0.12472973	1.0476725	-0.19084298	0.034405549	1.0834096	0.28753279	0.35463409	0.899443	-0.18346494	0.12176141	0.83569272	0.35039559
253	1.008	0.14182377	-0.010846767	0.02585453	0.44573766	0.089522678	0.17547065	-0.0029691718	0.033988173	-0.023250103	0.29928025	0.10908788	0.19155696	0.016748656	0.05323903	0.07308861	0.32242525	0.13827063	0.098104993	-0.077985639	0.0077838374	0.019087428	0.23667378	0.082772516	0.1363044	0.10596941	0.43527017	-0.077051901	0.4127284	0.5477242	0.21253958	0.10493033	0.43770998	0.048012039	0.41172385	0.52764606	0.088434483	0.15005407	0.85692907	-0.13093008	0.16387159	0.86818064	0.24078655	0.24289652	0.93876993	-0.073609267	0.23968029	0.95145736	0.16634205	0.077903517	1.0020818	0.046727158	0.25382362	1.4011441	-0.1079586	0.20921062	1.4044403	0.21813111	0.16838325	1.4526095	0.049120565	0.1318155	1.0466835	-0.19084199	0.039821464	1.0833435	0.287762	0.3631714	0.90102648	-0.18244271	0.1266749	0.83543953	0.35149747
254	1.012	0.1418085	-0.01085549	0.025849604	0.46493222	0.089339418	0.1756215	-0.0029115205	0.03434533	-0.022940351	0.31777339	0.10572154	0.19134248	0.017058345	0.053628519	0.073346391	0.34054112	0.13560808	0.098037383	-0.077925659	0.0084453113	0.019615362	0.25586547	0.078207124	0.1360794	0.10675148	0.43550892	-0.077045414	0.41894345	0.54791235	0.21306342	0.10579249	0.43783009	0.048148557	0.41884032	0.52762388	0.088805687	0.1548165	0.8566125	-0.13062849	0.16973873	0.8677474	0.24123309	0.24839872	0.93825443	-0.073485784	0.24553528	0.95094755	0.16648911	0.083479928	1.0016114	0.047270215	0.25964582	1.4007449	-0.10772117	0.21519318	1.4039347	0.21837341	0.17439804	1.4521055	0.049536077	0.13895442	1.0456894	-0.19085682	0.04535782	1.0831719	0.28797573	0.37165238	0.90253804	-0.18142118	0.13164754	0.83513466	0.35257421
